<mxfile host="app.diagrams.net" agent="Mozilla/5.0 (Windows NT 10.0; Win64; x64) AppleWebKit/537.36 (KHTML, like Gecko) Chrome/128.0.0.0 Safari/537.36" version="24.8.3">
  <diagram name="Trang-1" id="JfCjsNV1SjL6aB-IEgXu">
    <mxGraphModel dx="1050" dy="603" grid="0" gridSize="10" guides="1" tooltips="1" connect="1" arrows="1" fold="1" page="1" pageScale="1" pageWidth="1169" pageHeight="827" math="0" shadow="0">
      <root>
        <mxCell id="0" />
        <mxCell id="1" parent="0" />
        <mxCell id="lxGYfL6a8s-jSlg3bMHU-4" style="edgeStyle=orthogonalEdgeStyle;rounded=0;orthogonalLoop=1;jettySize=auto;html=1;exitX=1;exitY=0.5;exitDx=0;exitDy=0;entryX=0;entryY=0.5;entryDx=0;entryDy=0;" edge="1" parent="1" source="lxGYfL6a8s-jSlg3bMHU-1" target="lxGYfL6a8s-jSlg3bMHU-3">
          <mxGeometry relative="1" as="geometry">
            <Array as="points">
              <mxPoint x="250" y="40" />
              <mxPoint x="250" y="100" />
            </Array>
          </mxGeometry>
        </mxCell>
        <mxCell id="lxGYfL6a8s-jSlg3bMHU-1" value="Bắt đầu" style="rounded=0;whiteSpace=wrap;html=1;fillColor=#d5e8d4;strokeColor=#82b366;" vertex="1" parent="1">
          <mxGeometry x="80" y="20" width="80" height="40" as="geometry" />
        </mxCell>
        <mxCell id="lxGYfL6a8s-jSlg3bMHU-6" style="edgeStyle=orthogonalEdgeStyle;rounded=0;orthogonalLoop=1;jettySize=auto;html=1;exitX=0.5;exitY=1;exitDx=0;exitDy=0;" edge="1" parent="1" source="lxGYfL6a8s-jSlg3bMHU-3" target="lxGYfL6a8s-jSlg3bMHU-5">
          <mxGeometry relative="1" as="geometry" />
        </mxCell>
        <mxCell id="lxGYfL6a8s-jSlg3bMHU-3" value="Lấy hình ảnh từ Camera" style="rounded=0;whiteSpace=wrap;html=1;" vertex="1" parent="1">
          <mxGeometry x="280" y="80" width="120" height="40" as="geometry" />
        </mxCell>
        <mxCell id="lxGYfL6a8s-jSlg3bMHU-8" style="edgeStyle=orthogonalEdgeStyle;rounded=0;orthogonalLoop=1;jettySize=auto;html=1;exitX=0.5;exitY=1;exitDx=0;exitDy=0;entryX=0.5;entryY=0;entryDx=0;entryDy=0;" edge="1" parent="1" source="lxGYfL6a8s-jSlg3bMHU-5" target="lxGYfL6a8s-jSlg3bMHU-7">
          <mxGeometry relative="1" as="geometry" />
        </mxCell>
        <mxCell id="lxGYfL6a8s-jSlg3bMHU-5" value="Thực hiện các bước chuẩn hóa hình ảnh" style="rounded=0;whiteSpace=wrap;html=1;" vertex="1" parent="1">
          <mxGeometry x="280" y="160" width="120" height="40" as="geometry" />
        </mxCell>
        <mxCell id="lxGYfL6a8s-jSlg3bMHU-9" style="edgeStyle=orthogonalEdgeStyle;rounded=0;orthogonalLoop=1;jettySize=auto;html=1;exitX=1;exitY=0.5;exitDx=0;exitDy=0;entryX=0.5;entryY=0;entryDx=0;entryDy=0;" edge="1" parent="1" source="lxGYfL6a8s-jSlg3bMHU-7" target="lxGYfL6a8s-jSlg3bMHU-3">
          <mxGeometry relative="1" as="geometry">
            <Array as="points">
              <mxPoint x="500" y="300" />
              <mxPoint x="500" y="40" />
              <mxPoint x="340" y="40" />
            </Array>
          </mxGeometry>
        </mxCell>
        <mxCell id="lxGYfL6a8s-jSlg3bMHU-12" style="edgeStyle=orthogonalEdgeStyle;rounded=0;orthogonalLoop=1;jettySize=auto;html=1;exitX=0.5;exitY=1;exitDx=0;exitDy=0;" edge="1" parent="1" source="lxGYfL6a8s-jSlg3bMHU-7" target="lxGYfL6a8s-jSlg3bMHU-11">
          <mxGeometry relative="1" as="geometry" />
        </mxCell>
        <mxCell id="lxGYfL6a8s-jSlg3bMHU-7" value="Kiểm tra xem có ai bị ngã hay không" style="rhombus;whiteSpace=wrap;html=1;" vertex="1" parent="1">
          <mxGeometry x="200" y="240" width="280" height="120" as="geometry" />
        </mxCell>
        <mxCell id="lxGYfL6a8s-jSlg3bMHU-10" value="Không" style="text;html=1;align=center;verticalAlign=middle;resizable=0;points=[];autosize=1;strokeColor=none;fillColor=none;" vertex="1" parent="1">
          <mxGeometry x="500" y="285" width="60" height="30" as="geometry" />
        </mxCell>
        <mxCell id="lxGYfL6a8s-jSlg3bMHU-14" style="edgeStyle=orthogonalEdgeStyle;rounded=0;orthogonalLoop=1;jettySize=auto;html=1;exitX=0.5;exitY=1;exitDx=0;exitDy=0;" edge="1" parent="1" source="lxGYfL6a8s-jSlg3bMHU-11" target="lxGYfL6a8s-jSlg3bMHU-13">
          <mxGeometry relative="1" as="geometry" />
        </mxCell>
        <mxCell id="lxGYfL6a8s-jSlg3bMHU-11" value="Lấy dữ liệu về các chỉ số cơ thể từ Firebase" style="rounded=0;whiteSpace=wrap;html=1;" vertex="1" parent="1">
          <mxGeometry x="280" y="400" width="120" height="40" as="geometry" />
        </mxCell>
        <mxCell id="lxGYfL6a8s-jSlg3bMHU-16" style="edgeStyle=orthogonalEdgeStyle;rounded=0;orthogonalLoop=1;jettySize=auto;html=1;exitX=1;exitY=0.5;exitDx=0;exitDy=0;entryX=0;entryY=0.5;entryDx=0;entryDy=0;" edge="1" parent="1" source="lxGYfL6a8s-jSlg3bMHU-13" target="lxGYfL6a8s-jSlg3bMHU-15">
          <mxGeometry relative="1" as="geometry" />
        </mxCell>
        <mxCell id="lxGYfL6a8s-jSlg3bMHU-20" style="edgeStyle=orthogonalEdgeStyle;rounded=0;orthogonalLoop=1;jettySize=auto;html=1;exitX=0;exitY=0.5;exitDx=0;exitDy=0;entryX=0;entryY=0.5;entryDx=0;entryDy=0;" edge="1" parent="1" source="lxGYfL6a8s-jSlg3bMHU-13" target="lxGYfL6a8s-jSlg3bMHU-3">
          <mxGeometry relative="1" as="geometry" />
        </mxCell>
        <mxCell id="lxGYfL6a8s-jSlg3bMHU-13" value="Nếu các chỉ số chỉ ra&lt;div&gt;là có người đột quỵ&lt;/div&gt;" style="rhombus;whiteSpace=wrap;html=1;" vertex="1" parent="1">
          <mxGeometry x="200" y="480" width="280" height="80" as="geometry" />
        </mxCell>
        <mxCell id="lxGYfL6a8s-jSlg3bMHU-17" style="edgeStyle=orthogonalEdgeStyle;rounded=0;orthogonalLoop=1;jettySize=auto;html=1;exitX=0.5;exitY=0;exitDx=0;exitDy=0;entryX=0.5;entryY=0;entryDx=0;entryDy=0;" edge="1" parent="1" source="lxGYfL6a8s-jSlg3bMHU-15" target="lxGYfL6a8s-jSlg3bMHU-3">
          <mxGeometry relative="1" as="geometry">
            <Array as="points">
              <mxPoint x="620" y="40" />
              <mxPoint x="340" y="40" />
            </Array>
          </mxGeometry>
        </mxCell>
        <mxCell id="lxGYfL6a8s-jSlg3bMHU-15" value="Gọi điện" style="rounded=0;whiteSpace=wrap;html=1;" vertex="1" parent="1">
          <mxGeometry x="560" y="500" width="120" height="40" as="geometry" />
        </mxCell>
        <mxCell id="lxGYfL6a8s-jSlg3bMHU-18" value="Đúng" style="text;html=1;align=center;verticalAlign=middle;resizable=0;points=[];autosize=1;strokeColor=none;fillColor=none;" vertex="1" parent="1">
          <mxGeometry x="500" y="490" width="50" height="30" as="geometry" />
        </mxCell>
        <mxCell id="lxGYfL6a8s-jSlg3bMHU-19" value="Có" style="text;html=1;align=center;verticalAlign=middle;resizable=0;points=[];autosize=1;strokeColor=none;fillColor=none;" vertex="1" parent="1">
          <mxGeometry x="340" y="370" width="40" height="30" as="geometry" />
        </mxCell>
        <mxCell id="lxGYfL6a8s-jSlg3bMHU-21" value="Sai" style="text;html=1;align=center;verticalAlign=middle;resizable=0;points=[];autosize=1;strokeColor=none;fillColor=none;" vertex="1" parent="1">
          <mxGeometry x="190" y="480" width="40" height="30" as="geometry" />
        </mxCell>
      </root>
    </mxGraphModel>
  </diagram>
</mxfile>
